<svg width="455" height="83" viewBox="0 0 455 83" fill="none" xmlns="http://www.w3.org/2000/svg">
<rect x="18" y="20" width="6" height="42" fill="#22C55E"/>
<rect x="42" y="38" width="6" height="42" transform="rotate(90 42 38)" fill="#22C55E"/>
<path d="M94.0469 13.9043C94.0469 18.1465 92.8926 21.3926 90.584 23.6426C88.2871 25.8809 84.9766 27 80.6523 27H73.5332V1.30078H81.4082C85.4043 1.30078 88.5098 2.4082 90.7246 4.62305C92.9395 6.83789 94.0469 9.93164 94.0469 13.9043ZM90.8828 14.0098C90.8828 10.6582 90.0391 8.13281 88.3516 6.43359C86.6758 4.73438 84.1797 3.88477 80.8633 3.88477H76.5215V24.416H80.1602C83.7227 24.416 86.4004 23.543 88.1934 21.7969C89.9863 20.0391 90.8828 17.4434 90.8828 14.0098Z" fill="#374151"/>
<path d="M101.595 27V1.30078H104.583V27H101.595Z" fill="#374151"/>
<path d="M124.752 13.5352H133.489V26.0332C132.129 26.4668 130.746 26.7949 129.34 27.0176C127.934 27.2402 126.305 27.3516 124.454 27.3516C120.563 27.3516 117.534 26.1973 115.366 23.8887C113.198 21.5684 112.114 18.3223 112.114 14.1504C112.114 11.4785 112.647 9.14062 113.713 7.13672C114.791 5.12109 116.338 3.58594 118.354 2.53125C120.37 1.46484 122.731 0.931641 125.438 0.931641C128.18 0.931641 130.735 1.43555 133.102 2.44336L131.942 5.08008C129.621 4.0957 127.389 3.60352 125.245 3.60352C122.116 3.60352 119.672 4.53516 117.914 6.39844C116.157 8.26172 115.278 10.8457 115.278 14.1504C115.278 17.6191 116.121 20.25 117.809 22.043C119.508 23.8359 121.998 24.7324 125.28 24.7324C127.061 24.7324 128.801 24.5273 130.5 24.1172V16.207H124.752V13.5352Z" fill="#374151"/>
<path d="M141.476 27V1.30078H144.464V27H141.476Z" fill="#374151"/>
<path d="M161.241 27H158.253V3.95508H150.114V1.30078H169.38V3.95508H161.241V27Z" fill="#374151"/>
<path d="M191.219 27L188.02 18.8262H177.719L174.555 27H171.531L181.691 1.19531H184.205L194.312 27H191.219ZM187.088 16.1367L184.1 8.17383C183.713 7.16602 183.314 5.92969 182.904 4.46484C182.646 5.58984 182.277 6.82617 181.797 8.17383L178.773 16.1367H187.088Z" fill="#374151"/>
<path d="M199.646 27V1.30078H202.634V24.293H213.972V27H199.646Z" fill="#374151"/>
<path d="M242.579 27H239.625L234.44 9.79102C234.194 9.0293 233.918 8.06836 233.614 6.9082C233.309 5.74805 233.151 5.05078 233.139 4.81641C232.881 6.36328 232.471 8.05664 231.909 9.89648L226.881 27H223.928L217.09 1.30078H220.254L224.315 17.1738C224.877 19.4004 225.288 21.416 225.545 23.2207C225.862 21.0762 226.33 18.9785 226.952 16.9277L231.557 1.30078H234.721L239.555 17.0684C240.118 18.8848 240.592 20.9355 240.979 23.2207C241.202 21.5566 241.623 19.5293 242.245 17.1387L246.288 1.30078H249.452L242.579 27Z" fill="#374151"/>
<path d="M277.584 14.1152C277.584 18.2285 276.541 21.4629 274.455 23.8184C272.38 26.1738 269.492 27.3516 265.789 27.3516C262.004 27.3516 259.08 26.1973 257.017 23.8887C254.966 21.5684 253.941 18.2988 253.941 14.0801C253.941 9.89648 254.972 6.65625 257.035 4.35938C259.097 2.05078 262.027 0.896484 265.824 0.896484C269.515 0.896484 272.398 2.06836 274.472 4.41211C276.546 6.75586 277.584 9.99023 277.584 14.1152ZM257.105 14.1152C257.105 17.5957 257.843 20.2383 259.32 22.043C260.808 23.8359 262.964 24.7324 265.789 24.7324C268.636 24.7324 270.787 23.8359 272.24 22.043C273.693 20.25 274.42 17.6074 274.42 14.1152C274.42 10.6582 273.693 8.03906 272.24 6.25781C270.798 4.46484 268.66 3.56836 265.824 3.56836C262.976 3.56836 260.808 4.4707 259.32 6.27539C257.843 8.06836 257.105 10.6816 257.105 14.1152Z" fill="#374151"/>
<path d="M288.12 16.3125V27H285.132V1.30078H292.18C295.333 1.30078 297.659 1.9043 299.159 3.11133C300.671 4.31836 301.427 6.13477 301.427 8.56055C301.427 11.959 299.704 14.2559 296.259 15.4512L303.237 27H299.704L293.481 16.3125H288.12ZM288.12 13.7461H292.216C294.325 13.7461 295.872 13.3301 296.856 12.498C297.841 11.6543 298.333 10.3945 298.333 8.71875C298.333 7.01953 297.829 5.79492 296.821 5.04492C295.825 4.29492 294.22 3.91992 292.005 3.91992H288.12V13.7461Z" fill="#374151"/>
<path d="M327.748 27H324.232L314.863 14.5371L312.174 16.9277V27H309.186V1.30078H312.174V14.0449L323.828 1.30078H327.361L317.025 12.4629L327.748 27Z" fill="#374151"/>
<path d="M347.601 20.1621C347.601 22.4238 346.78 24.1875 345.14 25.4531C343.499 26.7188 341.273 27.3516 338.46 27.3516C335.413 27.3516 333.07 26.959 331.429 26.1738V23.291C332.484 23.7363 333.632 24.0879 334.874 24.3457C336.116 24.6035 337.347 24.7324 338.566 24.7324C340.558 24.7324 342.058 24.3574 343.066 23.6074C344.073 22.8457 344.577 21.791 344.577 20.4434C344.577 19.5527 344.396 18.8262 344.032 18.2637C343.681 17.6895 343.083 17.1621 342.239 16.6816C341.407 16.2012 340.136 15.6562 338.425 15.0469C336.034 14.1914 334.323 13.1777 333.292 12.0059C332.273 10.834 331.763 9.30469 331.763 7.41797C331.763 5.4375 332.507 3.86133 333.995 2.68945C335.484 1.51758 337.452 0.931641 339.902 0.931641C342.456 0.931641 344.806 1.40039 346.95 2.33789L346.019 4.93945C343.898 4.04883 341.835 3.60352 339.831 3.60352C338.249 3.60352 337.013 3.94336 336.122 4.62305C335.232 5.30273 334.786 6.24609 334.786 7.45312C334.786 8.34375 334.95 9.07617 335.279 9.65039C335.607 10.2129 336.157 10.7344 336.931 11.2148C337.716 11.6836 338.911 12.2051 340.517 12.7793C343.212 13.7402 345.064 14.7715 346.071 15.873C347.091 16.9746 347.601 18.4043 347.601 20.1621Z" fill="#374151"/>
<path d="M84.5371 58.6035C81.7129 58.6035 79.4805 59.5469 77.8398 61.4336C76.2109 63.3086 75.3965 65.8809 75.3965 69.1504C75.3965 72.5137 76.1816 75.1152 77.752 76.9551C79.334 78.7832 81.584 79.6973 84.502 79.6973C86.2949 79.6973 88.3398 79.375 90.6367 78.7305V81.3496C88.8555 82.0176 86.6582 82.3516 84.0449 82.3516C80.2598 82.3516 77.3359 81.2031 75.2734 78.9062C73.2227 76.6094 72.1973 73.3457 72.1973 69.1152C72.1973 66.4668 72.6895 64.1465 73.6738 62.1543C74.6699 60.1621 76.0996 58.627 77.9629 57.5488C79.8379 56.4707 82.041 55.9316 84.5723 55.9316C87.2676 55.9316 89.623 56.4238 91.6387 57.4082L90.373 59.9746C88.4277 59.0605 86.4824 58.6035 84.5371 58.6035Z" fill="#374151"/>
<path d="M120.351 69.1152C120.351 73.2285 119.308 76.4629 117.222 78.8184C115.148 81.1738 112.259 82.3516 108.556 82.3516C104.771 82.3516 101.847 81.1973 99.7844 78.8887C97.7336 76.5684 96.7082 73.2988 96.7082 69.0801C96.7082 64.8965 97.7395 61.6562 99.802 59.3594C101.864 57.0508 104.794 55.8965 108.591 55.8965C112.282 55.8965 115.165 57.0684 117.239 59.4121C119.314 61.7559 120.351 64.9902 120.351 69.1152ZM99.8723 69.1152C99.8723 72.5957 100.611 75.2383 102.087 77.043C103.575 78.8359 105.732 79.7324 108.556 79.7324C111.404 79.7324 113.554 78.8359 115.007 77.043C116.46 75.25 117.187 72.6074 117.187 69.1152C117.187 65.6582 116.46 63.0391 115.007 61.2578C113.566 59.4648 111.427 58.5684 108.591 58.5684C105.743 58.5684 103.575 59.4707 102.087 61.2754C100.611 63.0684 99.8723 65.6816 99.8723 69.1152Z" fill="#374151"/>
<path d="M147.973 82H144.563L130.518 60.4316H130.377C130.565 62.9629 130.659 65.2832 130.659 67.3926V82H127.899V56.3008H131.274L145.284 77.7812H145.424C145.401 77.4648 145.348 76.4512 145.266 74.7402C145.184 73.0176 145.155 71.7871 145.178 71.0488V56.3008H147.973V82Z" fill="#374151"/>
<path d="M171.341 75.1621C171.341 77.4238 170.521 79.1875 168.88 80.4531C167.24 81.7188 165.013 82.3516 162.201 82.3516C159.154 82.3516 156.81 81.959 155.17 81.1738V78.291C156.224 78.7363 157.373 79.0879 158.615 79.3457C159.857 79.6035 161.088 79.7324 162.306 79.7324C164.298 79.7324 165.798 79.3574 166.806 78.6074C167.814 77.8457 168.318 76.791 168.318 75.4434C168.318 74.5527 168.136 73.8262 167.773 73.2637C167.421 72.6895 166.824 72.1621 165.98 71.6816C165.148 71.2012 163.877 70.6562 162.166 70.0469C159.775 69.1914 158.064 68.1777 157.033 67.0059C156.013 65.834 155.504 64.3047 155.504 62.418C155.504 60.4375 156.248 58.8613 157.736 57.6895C159.224 56.5176 161.193 55.9316 163.642 55.9316C166.197 55.9316 168.546 56.4004 170.691 57.3379L169.759 59.9395C167.638 59.0488 165.576 58.6035 163.572 58.6035C161.99 58.6035 160.754 58.9434 159.863 59.623C158.972 60.3027 158.527 61.2461 158.527 62.4531C158.527 63.3438 158.691 64.0762 159.019 64.6504C159.347 65.2129 159.898 65.7344 160.671 66.2148C161.457 66.6836 162.652 67.2051 164.257 67.7793C166.953 68.7402 168.804 69.7715 169.812 70.873C170.832 71.9746 171.341 73.4043 171.341 75.1621Z" fill="#374151"/>
<path d="M197.804 56.3008V72.9297C197.804 75.8594 196.919 78.1621 195.149 79.8379C193.38 81.5137 190.948 82.3516 187.854 82.3516C184.761 82.3516 182.364 81.5078 180.665 79.8203C178.977 78.1328 178.134 75.8125 178.134 72.8594V56.3008H181.122V73.0703C181.122 75.2148 181.708 76.8613 182.88 78.0098C184.052 79.1582 185.774 79.7324 188.048 79.7324C190.216 79.7324 191.886 79.1582 193.057 78.0098C194.229 76.8496 194.815 75.1914 194.815 73.0352V56.3008H197.804Z" fill="#374151"/>
<path d="M206.424 82V56.3008H209.412V79.293H220.75V82H206.424Z" fill="#374151"/>
<path d="M234.837 82H231.849V58.9551H223.71V56.3008H242.976V58.9551H234.837V82Z" fill="#374151"/>
<path d="M248.661 82V56.3008H251.649V82H248.661Z" fill="#374151"/>
<path d="M280.589 82H277.179L263.134 60.4316H262.994C263.181 62.9629 263.275 65.2832 263.275 67.3926V82H260.515V56.3008H263.89L277.9 77.7812H278.041C278.017 77.4648 277.964 76.4512 277.882 74.7402C277.8 73.0176 277.771 71.7871 277.795 71.0488V56.3008H280.589V82Z" fill="#374151"/>
<path d="M300.759 68.5352H309.495V81.0332C308.136 81.4668 306.753 81.7949 305.346 82.0176C303.94 82.2402 302.311 82.3516 300.46 82.3516C296.569 82.3516 293.54 81.1973 291.372 78.8887C289.204 76.5684 288.12 73.3223 288.12 69.1504C288.12 66.4785 288.653 64.1406 289.72 62.1367C290.798 60.1211 292.345 58.5859 294.36 57.5312C296.376 56.4648 298.737 55.9316 301.444 55.9316C304.186 55.9316 306.741 56.4355 309.108 57.4434L307.948 60.0801C305.628 59.0957 303.395 58.6035 301.251 58.6035C298.122 58.6035 295.679 59.5352 293.921 61.3984C292.163 63.2617 291.284 65.8457 291.284 69.1504C291.284 72.6191 292.128 75.25 293.815 77.043C295.514 78.8359 298.005 79.7324 301.286 79.7324C303.067 79.7324 304.807 79.5273 306.507 79.1172V71.207H300.759V68.5352Z" fill="#374151"/>
<path d="M339.937 68.5352H348.673V81.0332C347.314 81.4668 345.931 81.7949 344.525 82.0176C343.118 82.2402 341.489 82.3516 339.638 82.3516C335.747 82.3516 332.718 81.1973 330.55 78.8887C328.382 76.5684 327.298 73.3223 327.298 69.1504C327.298 66.4785 327.831 64.1406 328.898 62.1367C329.976 60.1211 331.523 58.5859 333.538 57.5312C335.554 56.4648 337.915 55.9316 340.622 55.9316C343.364 55.9316 345.919 56.4355 348.286 57.4434L347.126 60.0801C344.806 59.0957 342.573 58.6035 340.429 58.6035C337.3 58.6035 334.857 59.5352 333.099 61.3984C331.341 63.2617 330.462 65.8457 330.462 69.1504C330.462 72.6191 331.306 75.25 332.993 77.043C334.693 78.8359 337.183 79.7324 340.464 79.7324C342.245 79.7324 343.986 79.5273 345.685 79.1172V71.207H339.937V68.5352Z" fill="#374151"/>
<path d="M359.649 71.3125V82H356.661V56.3008H363.709C366.862 56.3008 369.188 56.9043 370.688 58.1113C372.2 59.3184 372.955 61.1348 372.955 63.5605C372.955 66.959 371.233 69.2559 367.788 70.4512L374.766 82H371.233L365.01 71.3125H359.649ZM359.649 68.7461H363.745C365.854 68.7461 367.401 68.3301 368.385 67.498C369.37 66.6543 369.862 65.3945 369.862 63.7188C369.862 62.0195 369.358 60.7949 368.35 60.0449C367.354 59.2949 365.748 58.9199 363.534 58.9199H359.649V68.7461Z" fill="#374151"/>
<path d="M403.021 69.1152C403.021 73.2285 401.978 76.4629 399.892 78.8184C397.818 81.1738 394.929 82.3516 391.226 82.3516C387.441 82.3516 384.517 81.1973 382.455 78.8887C380.404 76.5684 379.379 73.2988 379.379 69.0801C379.379 64.8965 380.41 61.6562 382.472 59.3594C384.535 57.0508 387.464 55.8965 391.261 55.8965C394.953 55.8965 397.836 57.0684 399.91 59.4121C401.984 61.7559 403.021 64.9902 403.021 69.1152ZM382.543 69.1152C382.543 72.5957 383.281 75.2383 384.757 77.043C386.246 78.8359 388.402 79.7324 391.226 79.7324C394.074 79.7324 396.224 78.8359 397.677 77.043C399.13 75.25 399.857 72.6074 399.857 69.1152C399.857 65.6582 399.13 63.0391 397.677 61.2578C396.236 59.4648 394.097 58.5684 391.261 58.5684C388.414 58.5684 386.246 59.4707 384.757 61.2754C383.281 63.0684 382.543 65.6816 382.543 69.1152Z" fill="#374151"/>
<path d="M429.975 56.3008V72.9297C429.975 75.8594 429.091 78.1621 427.321 79.8379C425.552 81.5137 423.12 82.3516 420.026 82.3516C416.932 82.3516 414.536 81.5078 412.837 79.8203C411.149 78.1328 410.305 75.8125 410.305 72.8594V56.3008H413.294V73.0703C413.294 75.2148 413.88 76.8613 415.052 78.0098C416.223 79.1582 417.946 79.7324 420.22 79.7324C422.388 79.7324 424.057 79.1582 425.229 78.0098C426.401 76.8496 426.987 75.1914 426.987 73.0352V56.3008H429.975Z" fill="#374151"/>
<path d="M454.891 63.7891C454.891 66.3906 454 68.3945 452.219 69.8008C450.449 71.1953 447.912 71.8926 444.607 71.8926H441.584V82H438.596V56.3008H445.258C451.68 56.3008 454.891 58.7969 454.891 63.7891ZM441.584 69.3262H444.273C446.922 69.3262 448.838 68.8984 450.021 68.043C451.205 67.1875 451.797 65.8164 451.797 63.9297C451.797 62.2305 451.24 60.9648 450.127 60.1328C449.014 59.3008 447.279 58.8848 444.924 58.8848H441.584V69.3262Z" fill="#374151"/>
</svg>
