<svg width="156" height="156" viewBox="0 0 156 156" fill="none" xmlns="http://www.w3.org/2000/svg">
<g opacity="0.3">
<g clip-path="url(#clip0_1236_1181496)">
<path fill-rule="evenodd" clip-rule="evenodd" d="M1.00008 4.70718L0.292969 4.00008L4.00008 0.292969L4.70718 1.00008L1.00008 4.70718Z" fill="#00524D"/>
</g>
<g clip-path="url(#clip1_1236_1181496)">
<path fill-rule="evenodd" clip-rule="evenodd" d="M22.45 4.70718L21.7429 4.00008L25.45 0.292969L26.1571 1.00008L22.45 4.70718Z" fill="#00524D"/>
</g>
<g clip-path="url(#clip2_1236_1181496)">
<path fill-rule="evenodd" clip-rule="evenodd" d="M43.9001 4.70718L43.193 4.00008L46.9001 0.292969L47.6072 1.00008L43.9001 4.70718Z" fill="#00524D"/>
</g>
<g clip-path="url(#clip3_1236_1181496)">
<path fill-rule="evenodd" clip-rule="evenodd" d="M65.3501 4.70718L64.6429 4.00008L68.3501 0.292969L69.0572 1.00008L65.3501 4.70718Z" fill="#00524D"/>
</g>
<g clip-path="url(#clip4_1236_1181496)">
<path fill-rule="evenodd" clip-rule="evenodd" d="M86.8001 4.70718L86.093 4.00008L89.8001 0.292969L90.5072 1.00008L86.8001 4.70718Z" fill="#00524D"/>
</g>
<g clip-path="url(#clip5_1236_1181496)">
<path fill-rule="evenodd" clip-rule="evenodd" d="M108.25 4.70718L107.543 4.00008L111.25 0.292969L111.957 1.00008L108.25 4.70718Z" fill="#00524D"/>
</g>
<g clip-path="url(#clip6_1236_1181496)">
<path fill-rule="evenodd" clip-rule="evenodd" d="M129.7 4.70718L128.993 4.00008L132.7 0.292969L133.407 1.00008L129.7 4.70718Z" fill="#00524D"/>
</g>
<g clip-path="url(#clip7_1236_1181496)">
<path fill-rule="evenodd" clip-rule="evenodd" d="M151.15 4.70718L150.443 4.00008L154.15 0.292969L154.857 1.00008L151.15 4.70718Z" fill="#00524D"/>
</g>
<g clip-path="url(#clip8_1236_1181496)">
<path fill-rule="evenodd" clip-rule="evenodd" d="M1.00008 26.1574L0.292969 25.4503L4.00008 21.7432L4.70718 22.4503L1.00008 26.1574Z" fill="#00524D"/>
</g>
<g clip-path="url(#clip9_1236_1181496)">
<path fill-rule="evenodd" clip-rule="evenodd" d="M22.45 26.1574L21.7429 25.4503L25.45 21.7432L26.1571 22.4503L22.45 26.1574Z" fill="#00524D"/>
</g>
<g clip-path="url(#clip10_1236_1181496)">
<path fill-rule="evenodd" clip-rule="evenodd" d="M43.9001 26.1574L43.193 25.4503L46.9001 21.7432L47.6072 22.4503L43.9001 26.1574Z" fill="#00524D"/>
</g>
<g clip-path="url(#clip11_1236_1181496)">
<path fill-rule="evenodd" clip-rule="evenodd" d="M65.3501 26.1574L64.6429 25.4503L68.3501 21.7432L69.0572 22.4503L65.3501 26.1574Z" fill="#00524D"/>
</g>
<g clip-path="url(#clip12_1236_1181496)">
<path fill-rule="evenodd" clip-rule="evenodd" d="M86.8001 26.1574L86.093 25.4503L89.8001 21.7432L90.5072 22.4503L86.8001 26.1574Z" fill="#00524D"/>
</g>
<g clip-path="url(#clip13_1236_1181496)">
<path fill-rule="evenodd" clip-rule="evenodd" d="M108.25 26.1574L107.543 25.4503L111.25 21.7432L111.957 22.4503L108.25 26.1574Z" fill="#00524D"/>
</g>
<g clip-path="url(#clip14_1236_1181496)">
<path fill-rule="evenodd" clip-rule="evenodd" d="M129.7 26.1574L128.993 25.4503L132.7 21.7432L133.407 22.4503L129.7 26.1574Z" fill="#00524D"/>
</g>
<g clip-path="url(#clip15_1236_1181496)">
<path fill-rule="evenodd" clip-rule="evenodd" d="M151.15 26.1574L150.443 25.4503L154.15 21.7432L154.857 22.4503L151.15 26.1574Z" fill="#00524D"/>
</g>
<g clip-path="url(#clip16_1236_1181496)">
<path fill-rule="evenodd" clip-rule="evenodd" d="M1.00008 47.6076L0.292969 46.9005L4.00008 43.1934L4.70718 43.9005L1.00008 47.6076Z" fill="#00524D"/>
</g>
<g clip-path="url(#clip17_1236_1181496)">
<path fill-rule="evenodd" clip-rule="evenodd" d="M22.45 47.6076L21.7429 46.9005L25.45 43.1934L26.1571 43.9005L22.45 47.6076Z" fill="#00524D"/>
</g>
<g clip-path="url(#clip18_1236_1181496)">
<path fill-rule="evenodd" clip-rule="evenodd" d="M43.9001 47.6076L43.193 46.9005L46.9001 43.1934L47.6072 43.9005L43.9001 47.6076Z" fill="#00524D"/>
</g>
<g clip-path="url(#clip19_1236_1181496)">
<path fill-rule="evenodd" clip-rule="evenodd" d="M65.3501 47.6076L64.6429 46.9005L68.3501 43.1934L69.0572 43.9005L65.3501 47.6076Z" fill="#00524D"/>
</g>
<g clip-path="url(#clip20_1236_1181496)">
<path fill-rule="evenodd" clip-rule="evenodd" d="M86.8001 47.6076L86.093 46.9005L89.8001 43.1934L90.5072 43.9005L86.8001 47.6076Z" fill="#00524D"/>
</g>
<g clip-path="url(#clip21_1236_1181496)">
<path fill-rule="evenodd" clip-rule="evenodd" d="M108.25 47.6076L107.543 46.9005L111.25 43.1934L111.957 43.9005L108.25 47.6076Z" fill="#00524D"/>
</g>
<g clip-path="url(#clip22_1236_1181496)">
<path fill-rule="evenodd" clip-rule="evenodd" d="M129.7 47.6076L128.993 46.9005L132.7 43.1934L133.407 43.9005L129.7 47.6076Z" fill="#00524D"/>
</g>
<g clip-path="url(#clip23_1236_1181496)">
<path fill-rule="evenodd" clip-rule="evenodd" d="M151.15 47.6076L150.443 46.9005L154.15 43.1934L154.857 43.9005L151.15 47.6076Z" fill="#00524D"/>
</g>
<g clip-path="url(#clip24_1236_1181496)">
<path fill-rule="evenodd" clip-rule="evenodd" d="M1.00008 69.0568L0.292969 68.3497L4.00008 64.6426L4.70718 65.3497L1.00008 69.0568Z" fill="#00524D"/>
</g>
<g clip-path="url(#clip25_1236_1181496)">
<path fill-rule="evenodd" clip-rule="evenodd" d="M22.45 69.0568L21.7429 68.3497L25.45 64.6426L26.1571 65.3497L22.45 69.0568Z" fill="#00524D"/>
</g>
<g clip-path="url(#clip26_1236_1181496)">
<path fill-rule="evenodd" clip-rule="evenodd" d="M43.9001 69.0568L43.193 68.3497L46.9001 64.6426L47.6072 65.3497L43.9001 69.0568Z" fill="#00524D"/>
</g>
<g clip-path="url(#clip27_1236_1181496)">
<path fill-rule="evenodd" clip-rule="evenodd" d="M65.3501 69.0568L64.6429 68.3497L68.3501 64.6426L69.0572 65.3497L65.3501 69.0568Z" fill="#00524D"/>
</g>
<g clip-path="url(#clip28_1236_1181496)">
<path fill-rule="evenodd" clip-rule="evenodd" d="M86.8001 69.0568L86.093 68.3497L89.8001 64.6426L90.5072 65.3497L86.8001 69.0568Z" fill="#00524D"/>
</g>
<g clip-path="url(#clip29_1236_1181496)">
<path fill-rule="evenodd" clip-rule="evenodd" d="M108.25 69.0568L107.543 68.3497L111.25 64.6426L111.957 65.3497L108.25 69.0568Z" fill="#00524D"/>
</g>
<g clip-path="url(#clip30_1236_1181496)">
<path fill-rule="evenodd" clip-rule="evenodd" d="M129.7 69.0568L128.993 68.3497L132.7 64.6426L133.407 65.3497L129.7 69.0568Z" fill="#00524D"/>
</g>
<g clip-path="url(#clip31_1236_1181496)">
<path fill-rule="evenodd" clip-rule="evenodd" d="M151.15 69.0568L150.443 68.3497L154.15 64.6426L154.857 65.3497L151.15 69.0568Z" fill="#00524D"/>
</g>
<g clip-path="url(#clip32_1236_1181496)">
<path fill-rule="evenodd" clip-rule="evenodd" d="M1.00008 90.507L0.292969 89.7999L4.00008 86.0928L4.70718 86.7999L1.00008 90.507Z" fill="#00524D"/>
</g>
<g clip-path="url(#clip33_1236_1181496)">
<path fill-rule="evenodd" clip-rule="evenodd" d="M22.45 90.507L21.7429 89.7999L25.45 86.0928L26.1571 86.7999L22.45 90.507Z" fill="#00524D"/>
</g>
<g clip-path="url(#clip34_1236_1181496)">
<path fill-rule="evenodd" clip-rule="evenodd" d="M43.9001 90.507L43.193 89.7999L46.9001 86.0928L47.6072 86.7999L43.9001 90.507Z" fill="#00524D"/>
</g>
<g clip-path="url(#clip35_1236_1181496)">
<path fill-rule="evenodd" clip-rule="evenodd" d="M65.3501 90.507L64.6429 89.7999L68.3501 86.0928L69.0572 86.7999L65.3501 90.507Z" fill="#00524D"/>
</g>
<g clip-path="url(#clip36_1236_1181496)">
<path fill-rule="evenodd" clip-rule="evenodd" d="M86.8001 90.507L86.093 89.7999L89.8001 86.0928L90.5072 86.7999L86.8001 90.507Z" fill="#00524D"/>
</g>
<g clip-path="url(#clip37_1236_1181496)">
<path fill-rule="evenodd" clip-rule="evenodd" d="M108.25 90.507L107.543 89.7999L111.25 86.0928L111.957 86.7999L108.25 90.507Z" fill="#00524D"/>
</g>
<g clip-path="url(#clip38_1236_1181496)">
<path fill-rule="evenodd" clip-rule="evenodd" d="M129.7 90.507L128.993 89.7999L132.7 86.0928L133.407 86.7999L129.7 90.507Z" fill="#00524D"/>
</g>
<g clip-path="url(#clip39_1236_1181496)">
<path fill-rule="evenodd" clip-rule="evenodd" d="M151.15 90.507L150.443 89.7999L154.15 86.0928L154.857 86.7999L151.15 90.507Z" fill="#00524D"/>
</g>
<g clip-path="url(#clip40_1236_1181496)">
<path fill-rule="evenodd" clip-rule="evenodd" d="M1.00008 111.957L0.292969 111.25L4.00008 107.543L4.70718 108.25L1.00008 111.957Z" fill="#00524D"/>
</g>
<g clip-path="url(#clip41_1236_1181496)">
<path fill-rule="evenodd" clip-rule="evenodd" d="M22.45 111.957L21.7429 111.25L25.45 107.543L26.1571 108.25L22.45 111.957Z" fill="#00524D"/>
</g>
<g clip-path="url(#clip42_1236_1181496)">
<path fill-rule="evenodd" clip-rule="evenodd" d="M43.9001 111.957L43.193 111.25L46.9001 107.543L47.6072 108.25L43.9001 111.957Z" fill="#00524D"/>
</g>
<g clip-path="url(#clip43_1236_1181496)">
<path fill-rule="evenodd" clip-rule="evenodd" d="M65.3501 111.957L64.6429 111.25L68.3501 107.543L69.0572 108.25L65.3501 111.957Z" fill="#00524D"/>
</g>
<g clip-path="url(#clip44_1236_1181496)">
<path fill-rule="evenodd" clip-rule="evenodd" d="M86.8001 111.957L86.093 111.25L89.8001 107.543L90.5072 108.25L86.8001 111.957Z" fill="#00524D"/>
</g>
<g clip-path="url(#clip45_1236_1181496)">
<path fill-rule="evenodd" clip-rule="evenodd" d="M108.25 111.957L107.543 111.25L111.25 107.543L111.957 108.25L108.25 111.957Z" fill="#00524D"/>
</g>
<g clip-path="url(#clip46_1236_1181496)">
<path fill-rule="evenodd" clip-rule="evenodd" d="M129.7 111.957L128.993 111.25L132.7 107.543L133.407 108.25L129.7 111.957Z" fill="#00524D"/>
</g>
<g clip-path="url(#clip47_1236_1181496)">
<path fill-rule="evenodd" clip-rule="evenodd" d="M151.15 111.957L150.443 111.25L154.15 107.543L154.857 108.25L151.15 111.957Z" fill="#00524D"/>
</g>
<g clip-path="url(#clip48_1236_1181496)">
<path fill-rule="evenodd" clip-rule="evenodd" d="M1.00008 133.407L0.292969 132.7L4.00008 128.993L4.70718 129.7L1.00008 133.407Z" fill="#00524D"/>
</g>
<g clip-path="url(#clip49_1236_1181496)">
<path fill-rule="evenodd" clip-rule="evenodd" d="M22.45 133.407L21.7429 132.7L25.45 128.993L26.1571 129.7L22.45 133.407Z" fill="#00524D"/>
</g>
<g clip-path="url(#clip50_1236_1181496)">
<path fill-rule="evenodd" clip-rule="evenodd" d="M43.9001 133.407L43.193 132.7L46.9001 128.993L47.6072 129.7L43.9001 133.407Z" fill="#00524D"/>
</g>
<g clip-path="url(#clip51_1236_1181496)">
<path fill-rule="evenodd" clip-rule="evenodd" d="M65.3501 133.407L64.6429 132.7L68.3501 128.993L69.0572 129.7L65.3501 133.407Z" fill="#00524D"/>
</g>
<g clip-path="url(#clip52_1236_1181496)">
<path fill-rule="evenodd" clip-rule="evenodd" d="M86.8001 133.407L86.093 132.7L89.8001 128.993L90.5072 129.7L86.8001 133.407Z" fill="#00524D"/>
</g>
<g clip-path="url(#clip53_1236_1181496)">
<path fill-rule="evenodd" clip-rule="evenodd" d="M108.25 133.407L107.543 132.7L111.25 128.993L111.957 129.7L108.25 133.407Z" fill="#00524D"/>
</g>
<g clip-path="url(#clip54_1236_1181496)">
<path fill-rule="evenodd" clip-rule="evenodd" d="M129.7 133.407L128.993 132.7L132.7 128.993L133.407 129.7L129.7 133.407Z" fill="#00524D"/>
</g>
<g clip-path="url(#clip55_1236_1181496)">
<path fill-rule="evenodd" clip-rule="evenodd" d="M151.15 133.407L150.443 132.7L154.15 128.993L154.857 129.7L151.15 133.407Z" fill="#00524D"/>
</g>
<g clip-path="url(#clip56_1236_1181496)">
<path fill-rule="evenodd" clip-rule="evenodd" d="M1.00008 154.858L0.292969 154.15L4.00008 150.443L4.70718 151.15L1.00008 154.858Z" fill="#00524D"/>
</g>
<g clip-path="url(#clip57_1236_1181496)">
<path fill-rule="evenodd" clip-rule="evenodd" d="M22.45 154.858L21.7429 154.15L25.45 150.443L26.1571 151.15L22.45 154.858Z" fill="#00524D"/>
</g>
<g clip-path="url(#clip58_1236_1181496)">
<path fill-rule="evenodd" clip-rule="evenodd" d="M43.9001 154.858L43.193 154.15L46.9001 150.443L47.6072 151.15L43.9001 154.858Z" fill="#00524D"/>
</g>
<g clip-path="url(#clip59_1236_1181496)">
<path fill-rule="evenodd" clip-rule="evenodd" d="M65.3501 154.858L64.6429 154.15L68.3501 150.443L69.0572 151.15L65.3501 154.858Z" fill="#00524D"/>
</g>
<g clip-path="url(#clip60_1236_1181496)">
<path fill-rule="evenodd" clip-rule="evenodd" d="M86.8001 154.858L86.093 154.15L89.8001 150.443L90.5072 151.15L86.8001 154.858Z" fill="#00524D"/>
</g>
<g clip-path="url(#clip61_1236_1181496)">
<path fill-rule="evenodd" clip-rule="evenodd" d="M108.25 154.858L107.543 154.15L111.25 150.443L111.957 151.15L108.25 154.858Z" fill="#00524D"/>
</g>
<g clip-path="url(#clip62_1236_1181496)">
<path fill-rule="evenodd" clip-rule="evenodd" d="M129.7 154.858L128.993 154.15L132.7 150.443L133.407 151.15L129.7 154.858Z" fill="#00524D"/>
</g>
<g clip-path="url(#clip63_1236_1181496)">
<path fill-rule="evenodd" clip-rule="evenodd" d="M151.15 154.858L150.443 154.15L154.15 150.443L154.857 151.15L151.15 154.858Z" fill="#00524D"/>
</g>
</g>
<defs>
<clipPath id="clip0_1236_1181496">
<rect width="5" height="5" fill="white" transform="matrix(-1 0 0 1 5 0)"/>
</clipPath>
<clipPath id="clip1_1236_1181496">
<rect width="5" height="5" fill="white" transform="matrix(-1 0 0 1 26.45 0)"/>
</clipPath>
<clipPath id="clip2_1236_1181496">
<rect width="5" height="5" fill="white" transform="matrix(-1 0 0 1 47.9 0)"/>
</clipPath>
<clipPath id="clip3_1236_1181496">
<rect width="5" height="5" fill="white" transform="matrix(-1 0 0 1 69.35 0)"/>
</clipPath>
<clipPath id="clip4_1236_1181496">
<rect width="5" height="5" fill="white" transform="matrix(-1 0 0 1 90.8 0)"/>
</clipPath>
<clipPath id="clip5_1236_1181496">
<rect width="5" height="5" fill="white" transform="matrix(-1 0 0 1 112.25 0)"/>
</clipPath>
<clipPath id="clip6_1236_1181496">
<rect width="5" height="5" fill="white" transform="matrix(-1 0 0 1 133.7 0)"/>
</clipPath>
<clipPath id="clip7_1236_1181496">
<rect width="5" height="5" fill="white" transform="matrix(-1 0 0 1 155.15 0)"/>
</clipPath>
<clipPath id="clip8_1236_1181496">
<rect width="5" height="5" fill="white" transform="matrix(-1 0 0 1 5 21.4502)"/>
</clipPath>
<clipPath id="clip9_1236_1181496">
<rect width="5" height="5" fill="white" transform="matrix(-1 0 0 1 26.45 21.4502)"/>
</clipPath>
<clipPath id="clip10_1236_1181496">
<rect width="5" height="5" fill="white" transform="matrix(-1 0 0 1 47.9 21.4502)"/>
</clipPath>
<clipPath id="clip11_1236_1181496">
<rect width="5" height="5" fill="white" transform="matrix(-1 0 0 1 69.35 21.4502)"/>
</clipPath>
<clipPath id="clip12_1236_1181496">
<rect width="5" height="5" fill="white" transform="matrix(-1 0 0 1 90.8 21.4502)"/>
</clipPath>
<clipPath id="clip13_1236_1181496">
<rect width="5" height="5" fill="white" transform="matrix(-1 0 0 1 112.25 21.4502)"/>
</clipPath>
<clipPath id="clip14_1236_1181496">
<rect width="5" height="5" fill="white" transform="matrix(-1 0 0 1 133.7 21.4502)"/>
</clipPath>
<clipPath id="clip15_1236_1181496">
<rect width="5" height="5" fill="white" transform="matrix(-1 0 0 1 155.15 21.4502)"/>
</clipPath>
<clipPath id="clip16_1236_1181496">
<rect width="5" height="5" fill="white" transform="matrix(-1 0 0 1 5 42.9004)"/>
</clipPath>
<clipPath id="clip17_1236_1181496">
<rect width="5" height="5" fill="white" transform="matrix(-1 0 0 1 26.45 42.9004)"/>
</clipPath>
<clipPath id="clip18_1236_1181496">
<rect width="5" height="5" fill="white" transform="matrix(-1 0 0 1 47.9 42.9004)"/>
</clipPath>
<clipPath id="clip19_1236_1181496">
<rect width="5" height="5" fill="white" transform="matrix(-1 0 0 1 69.35 42.9004)"/>
</clipPath>
<clipPath id="clip20_1236_1181496">
<rect width="5" height="5" fill="white" transform="matrix(-1 0 0 1 90.8 42.9004)"/>
</clipPath>
<clipPath id="clip21_1236_1181496">
<rect width="5" height="5" fill="white" transform="matrix(-1 0 0 1 112.25 42.9004)"/>
</clipPath>
<clipPath id="clip22_1236_1181496">
<rect width="5" height="5" fill="white" transform="matrix(-1 0 0 1 133.7 42.9004)"/>
</clipPath>
<clipPath id="clip23_1236_1181496">
<rect width="5" height="5" fill="white" transform="matrix(-1 0 0 1 155.15 42.9004)"/>
</clipPath>
<clipPath id="clip24_1236_1181496">
<rect width="5" height="5" fill="white" transform="matrix(-1 0 0 1 5 64.3496)"/>
</clipPath>
<clipPath id="clip25_1236_1181496">
<rect width="5" height="5" fill="white" transform="matrix(-1 0 0 1 26.45 64.3496)"/>
</clipPath>
<clipPath id="clip26_1236_1181496">
<rect width="5" height="5" fill="white" transform="matrix(-1 0 0 1 47.9 64.3496)"/>
</clipPath>
<clipPath id="clip27_1236_1181496">
<rect width="5" height="5" fill="white" transform="matrix(-1 0 0 1 69.35 64.3496)"/>
</clipPath>
<clipPath id="clip28_1236_1181496">
<rect width="5" height="5" fill="white" transform="matrix(-1 0 0 1 90.8 64.3496)"/>
</clipPath>
<clipPath id="clip29_1236_1181496">
<rect width="5" height="5" fill="white" transform="matrix(-1 0 0 1 112.25 64.3496)"/>
</clipPath>
<clipPath id="clip30_1236_1181496">
<rect width="5" height="5" fill="white" transform="matrix(-1 0 0 1 133.7 64.3496)"/>
</clipPath>
<clipPath id="clip31_1236_1181496">
<rect width="5" height="5" fill="white" transform="matrix(-1 0 0 1 155.15 64.3496)"/>
</clipPath>
<clipPath id="clip32_1236_1181496">
<rect width="5" height="5" fill="white" transform="matrix(-1 0 0 1 5 85.7998)"/>
</clipPath>
<clipPath id="clip33_1236_1181496">
<rect width="5" height="5" fill="white" transform="matrix(-1 0 0 1 26.45 85.7998)"/>
</clipPath>
<clipPath id="clip34_1236_1181496">
<rect width="5" height="5" fill="white" transform="matrix(-1 0 0 1 47.9 85.7998)"/>
</clipPath>
<clipPath id="clip35_1236_1181496">
<rect width="5" height="5" fill="white" transform="matrix(-1 0 0 1 69.35 85.7998)"/>
</clipPath>
<clipPath id="clip36_1236_1181496">
<rect width="5" height="5" fill="white" transform="matrix(-1 0 0 1 90.8 85.7998)"/>
</clipPath>
<clipPath id="clip37_1236_1181496">
<rect width="5" height="5" fill="white" transform="matrix(-1 0 0 1 112.25 85.7998)"/>
</clipPath>
<clipPath id="clip38_1236_1181496">
<rect width="5" height="5" fill="white" transform="matrix(-1 0 0 1 133.7 85.7998)"/>
</clipPath>
<clipPath id="clip39_1236_1181496">
<rect width="5" height="5" fill="white" transform="matrix(-1 0 0 1 155.15 85.7998)"/>
</clipPath>
<clipPath id="clip40_1236_1181496">
<rect width="5" height="5" fill="white" transform="matrix(-1 0 0 1 5 107.25)"/>
</clipPath>
<clipPath id="clip41_1236_1181496">
<rect width="5" height="5" fill="white" transform="matrix(-1 0 0 1 26.45 107.25)"/>
</clipPath>
<clipPath id="clip42_1236_1181496">
<rect width="5" height="5" fill="white" transform="matrix(-1 0 0 1 47.9 107.25)"/>
</clipPath>
<clipPath id="clip43_1236_1181496">
<rect width="5" height="5" fill="white" transform="matrix(-1 0 0 1 69.35 107.25)"/>
</clipPath>
<clipPath id="clip44_1236_1181496">
<rect width="5" height="5" fill="white" transform="matrix(-1 0 0 1 90.8 107.25)"/>
</clipPath>
<clipPath id="clip45_1236_1181496">
<rect width="5" height="5" fill="white" transform="matrix(-1 0 0 1 112.25 107.25)"/>
</clipPath>
<clipPath id="clip46_1236_1181496">
<rect width="5" height="5" fill="white" transform="matrix(-1 0 0 1 133.7 107.25)"/>
</clipPath>
<clipPath id="clip47_1236_1181496">
<rect width="5" height="5" fill="white" transform="matrix(-1 0 0 1 155.15 107.25)"/>
</clipPath>
<clipPath id="clip48_1236_1181496">
<rect width="5" height="5" fill="white" transform="matrix(-1 0 0 1 5 128.7)"/>
</clipPath>
<clipPath id="clip49_1236_1181496">
<rect width="5" height="5" fill="white" transform="matrix(-1 0 0 1 26.45 128.7)"/>
</clipPath>
<clipPath id="clip50_1236_1181496">
<rect width="5" height="5" fill="white" transform="matrix(-1 0 0 1 47.9 128.7)"/>
</clipPath>
<clipPath id="clip51_1236_1181496">
<rect width="5" height="5" fill="white" transform="matrix(-1 0 0 1 69.35 128.7)"/>
</clipPath>
<clipPath id="clip52_1236_1181496">
<rect width="5" height="5" fill="white" transform="matrix(-1 0 0 1 90.8 128.7)"/>
</clipPath>
<clipPath id="clip53_1236_1181496">
<rect width="5" height="5" fill="white" transform="matrix(-1 0 0 1 112.25 128.7)"/>
</clipPath>
<clipPath id="clip54_1236_1181496">
<rect width="5" height="5" fill="white" transform="matrix(-1 0 0 1 133.7 128.7)"/>
</clipPath>
<clipPath id="clip55_1236_1181496">
<rect width="5" height="5" fill="white" transform="matrix(-1 0 0 1 155.15 128.7)"/>
</clipPath>
<clipPath id="clip56_1236_1181496">
<rect width="5" height="5" fill="white" transform="matrix(-1 0 0 1 5 150.15)"/>
</clipPath>
<clipPath id="clip57_1236_1181496">
<rect width="5" height="5" fill="white" transform="matrix(-1 0 0 1 26.45 150.15)"/>
</clipPath>
<clipPath id="clip58_1236_1181496">
<rect width="5" height="5" fill="white" transform="matrix(-1 0 0 1 47.9 150.15)"/>
</clipPath>
<clipPath id="clip59_1236_1181496">
<rect width="5" height="5" fill="white" transform="matrix(-1 0 0 1 69.35 150.15)"/>
</clipPath>
<clipPath id="clip60_1236_1181496">
<rect width="5" height="5" fill="white" transform="matrix(-1 0 0 1 90.8 150.15)"/>
</clipPath>
<clipPath id="clip61_1236_1181496">
<rect width="5" height="5" fill="white" transform="matrix(-1 0 0 1 112.25 150.15)"/>
</clipPath>
<clipPath id="clip62_1236_1181496">
<rect width="5" height="5" fill="white" transform="matrix(-1 0 0 1 133.7 150.15)"/>
</clipPath>
<clipPath id="clip63_1236_1181496">
<rect width="5" height="5" fill="white" transform="matrix(-1 0 0 1 155.15 150.15)"/>
</clipPath>
</defs>
</svg>
