<svg width="20" height="20" viewBox="0 0 20 20" fill="none" xmlns="http://www.w3.org/2000/svg">
<path d="M19.5 19.5H16.3612V13.4998C16.3612 12.7473 16.3598 11.7626 16.0455 10.9676C15.8826 10.5557 15.6272 10.1693 15.2263 9.88928C14.8244 9.60849 14.319 9.46455 13.7087 9.46455C13.1055 9.46455 12.5936 9.58269 12.1703 9.81738C11.744 10.0536 11.4374 10.3916 11.2222 10.7823C10.8046 11.5402 10.7259 12.5085 10.7259 13.3881V19.5H7.58815V7.14732H10.5564V8.47292V8.97292H11.0564H11.1143H11.4019L11.5465 8.72436C11.898 8.12015 12.4069 7.62308 13.0187 7.28625C13.6304 6.94942 14.3221 6.78548 15.0197 6.81191L15.0291 6.81227H15.0386C17.0107 6.81227 18.0659 7.45142 18.6678 8.40859C19.3031 9.41893 19.5 10.8806 19.5 12.6643V19.5ZM3.99483 19.5H0.853903V7.14732H3.99483V19.5ZM2.41827 4.32602C2.04098 4.32767 1.67159 4.21736 1.35676 4.00892C1.04164 3.80029 0.795303 3.50272 0.648987 3.15375C0.502668 2.80478 0.462984 2.42016 0.534982 2.04856C0.606979 1.67697 0.787402 1.33519 1.05333 1.06642C1.31925 0.797654 1.65873 0.613963 2.02878 0.538479C2.39883 0.462995 2.78293 0.499084 3.13253 0.64221C3.48213 0.785338 3.7816 1.02911 3.99297 1.34278C4.20419 1.65623 4.31794 2.02537 4.3198 2.40359C4.32004 2.91063 4.1202 3.39711 3.76399 3.75713C3.40778 4.11715 2.92408 4.32154 2.41827 4.32602Z" fill="#70757c" stroke="#70757c"/>
</svg>
