<svg width="21" height="19" viewBox="0 0 21 19" fill="none" xmlns="http://www.w3.org/2000/svg">
<path d="M18.8389 4.73414C18.8518 4.94181 18.8518 5.14947 18.8518 5.35713C18.8635 7.15193 18.5548 8.93141 17.9437 10.5922C17.3326 12.2529 16.4313 13.7618 15.2921 15.0312C14.153 16.3005 12.7987 17.3051 11.308 17.9863C9.81724 18.6676 8.21984 19.0121 6.60857 18.9997C4.26529 19.0055 1.97042 18.257 0 16.8443C0.345088 16.8867 0.692109 16.9066 1.03929 16.9039C2.976 16.9093 4.85787 16.1878 6.38143 14.856C5.48324 14.838 4.61253 14.5078 3.89101 13.9117C3.1695 13.3155 2.63322 12.4832 2.35714 11.5309C2.62616 11.5783 2.898 11.603 3.17036 11.6049C3.55252 11.6036 3.93302 11.5487 4.30286 11.4414C3.32946 11.2208 2.45454 10.6319 1.82651 9.77462C1.19847 8.91734 0.855988 7.84447 0.857143 6.73798V6.6783C1.45327 7.04898 2.11958 7.25753 2.80179 7.28697C1.88762 6.60915 1.24027 5.56813 0.991957 4.37655C0.743641 3.18497 0.913098 1.93275 1.46571 0.875659C2.54682 2.35694 3.89532 3.56861 5.42379 4.43213C6.95226 5.29565 8.62658 5.79173 10.3382 5.88823C10.269 5.52726 10.2331 5.15935 10.2311 4.79024C10.2324 3.82905 10.4929 2.89048 10.9788 2.09616C11.4647 1.30184 12.1536 0.688406 12.9562 0.335359C13.7588 -0.0176886 14.638 -0.0940702 15.4801 0.116114C16.3221 0.326299 17.088 0.813358 17.6786 1.51416C18.6422 1.30737 19.5663 0.915659 20.4096 0.3565C20.0886 1.46408 19.4158 2.40316 18.5175 2.99765C19.3736 2.89005 20.2104 2.64024 21 2.2565C20.411 3.21209 19.6815 4.05013 18.8421 4.73534L18.8389 4.73414Z" fill="#70757c" stroke="#70757c"/>
</svg>
